<svg width="839" height="440" viewBox="0 0 839 440" fill="none" xmlns="http://www.w3.org/2000/svg">
<g clip-path="url(#clip0_102:58)">
<path d="M422.192 440C649.694 440 834.12 428.225 834.12 413.7C834.12 399.174 649.694 387.399 422.192 387.399C194.69 387.399 10.2638 399.174 10.2638 413.7C10.2638 428.225 194.69 440 422.192 440Z" fill="#F2F2F2"/>
<path d="M406.404 125.779C339.29 125.779 291.102 167.306 291.102 264.203C291.102 374.018 339.29 403.087 406.404 403.087C473.518 403.087 524.576 371.25 524.576 264.203C524.576 149.773 473.518 125.779 406.404 125.779ZM406.845 366.636C360.36 366.636 336.075 340.334 336.075 264.274C336.075 197.161 361.354 161.77 407.839 161.77C454.324 161.77 479.604 185.017 479.604 264.274C479.604 338.417 453.33 366.636 406.845 366.636Z" fill="#2F2E41"/>
<path d="M250.914 326.493H223.165V247.686C223.165 243.501 221.441 239.486 218.372 236.527C215.303 233.567 211.141 231.904 206.801 231.904H200.298C198.149 231.904 196.021 232.312 194.036 233.105C192.051 233.898 190.247 235.061 188.727 236.527C187.207 237.992 186.002 239.732 185.18 241.647C184.357 243.562 183.934 245.614 183.934 247.686V326.493H105.664C104.053 326.493 102.471 326.092 101.069 325.328C99.6666 324.564 98.4932 323.464 97.6621 322.134C96.8309 320.804 96.3704 319.289 96.3251 317.737C96.2798 316.184 96.6512 314.647 97.4034 313.274L180.244 162.061C181.277 160.176 181.903 158.108 182.084 155.983C182.266 153.858 181.999 151.72 181.299 149.697C180.6 147.674 179.483 145.809 178.016 144.214C176.549 142.619 174.762 141.328 172.763 140.417L167.872 138.19C164.075 136.461 159.734 136.205 155.747 137.477C151.76 138.748 148.432 141.449 146.453 145.021L45.4177 327.302C43.6972 330.406 42.7971 333.871 42.7971 337.391C42.7971 340.201 43.371 342.984 44.4862 345.581C45.6013 348.177 47.2359 350.536 49.2964 352.524C51.3569 354.511 53.8032 356.087 56.4954 357.163C59.1876 358.238 62.0731 358.792 64.9872 358.792H183.934V408.624C183.934 411.108 184.441 413.568 185.427 415.864C186.413 418.159 187.858 420.244 189.679 422.001C191.501 423.758 193.663 425.151 196.043 426.102C198.423 427.053 200.974 427.542 203.55 427.542H203.55C206.126 427.542 208.676 427.053 211.056 426.102C213.436 425.151 215.598 423.758 217.42 422.001C219.241 420.244 220.686 418.159 221.672 415.864C222.658 413.568 223.165 411.108 223.165 408.624V358.792H250.914C255.355 358.792 259.614 357.09 262.755 354.062C265.895 351.033 267.659 346.926 267.659 342.642C267.659 338.359 265.895 334.252 262.755 331.223C259.614 328.195 255.355 326.493 250.914 326.493Z" fill="#6C63FF"/>
<path d="M764.748 326.493H736.999V247.686C736.999 243.501 735.275 239.486 732.206 236.527C729.137 233.567 724.975 231.904 720.635 231.904H714.132C711.983 231.904 709.856 232.312 707.87 233.105C705.885 233.898 704.081 235.061 702.561 236.527C701.041 237.992 699.836 239.732 699.014 241.647C698.191 243.562 697.768 245.614 697.768 247.686V326.493H619.498C617.887 326.493 616.305 326.092 614.903 325.328C613.501 324.564 612.327 323.464 611.496 322.134C610.665 320.804 610.204 319.289 610.159 317.737C610.114 316.184 610.485 314.647 611.237 313.274L694.078 162.061C695.111 160.176 695.737 158.108 695.918 155.983C696.1 153.858 695.833 151.72 695.133 149.697C694.434 147.674 693.317 145.809 691.85 144.214C690.383 142.619 688.596 141.328 686.597 140.417L681.706 138.19C677.909 136.461 673.568 136.205 669.581 137.477C665.594 138.748 662.266 141.449 660.287 145.021L559.252 327.302C557.531 330.406 556.631 333.871 556.631 337.391C556.631 343.067 558.969 348.51 563.13 352.524C567.292 356.537 572.936 358.792 578.821 358.792H697.768V408.624C697.768 413.641 699.835 418.453 703.513 422.001C707.192 425.549 712.181 427.542 717.384 427.542C722.586 427.542 727.575 425.549 731.254 422.001C734.932 418.453 736.999 413.641 736.999 408.624V358.792H764.748C769.189 358.792 773.448 357.09 776.589 354.062C779.729 351.033 781.493 346.926 781.493 342.642C781.493 338.359 779.729 334.252 776.589 331.223C773.448 328.195 769.189 326.493 764.748 326.493Z" fill="#6C63FF"/>
<path d="M258.569 317.265H230.82V238.458C230.82 236.386 230.397 234.333 229.574 232.418C228.752 230.504 227.547 228.764 226.027 227.298C224.507 225.833 222.703 224.67 220.718 223.877C218.733 223.084 216.605 222.676 214.456 222.676H207.953C203.613 222.676 199.451 224.339 196.382 227.298C193.313 230.258 191.589 234.272 191.589 238.458V317.265H113.319C111.708 317.265 110.125 316.863 108.724 316.1C107.322 315.336 106.148 314.236 105.317 312.906C104.486 311.575 104.025 310.061 103.98 308.509C103.935 306.956 104.306 305.419 105.058 304.046L187.899 152.833C188.932 150.948 189.558 148.88 189.739 146.755C189.92 144.63 189.654 142.492 188.954 140.469C188.255 138.446 187.138 136.581 185.671 134.986C184.204 133.391 182.417 132.099 180.417 131.189L175.527 128.962C171.73 127.232 167.389 126.977 163.402 128.249C159.415 129.52 156.087 132.221 154.107 135.793L53.0726 318.074C51.3521 321.178 50.452 324.643 50.452 328.163V328.163C50.452 333.839 52.7898 339.282 56.9513 343.295C61.1128 347.309 66.7569 349.564 72.6421 349.564H191.589V399.396C191.589 401.88 192.096 404.34 193.082 406.635C194.068 408.931 195.513 411.016 197.334 412.773C199.156 414.53 201.318 415.923 203.698 416.874C206.078 417.824 208.629 418.314 211.204 418.314H211.204C216.407 418.314 221.396 416.321 225.075 412.773C228.753 409.225 230.82 404.413 230.82 399.396V349.564H258.569C260.768 349.564 262.946 349.146 264.977 348.334C267.009 347.523 268.855 346.333 270.41 344.834C271.965 343.334 273.198 341.554 274.039 339.594C274.881 337.635 275.314 335.535 275.314 333.414V333.414C275.314 331.293 274.881 329.193 274.039 327.234C273.198 325.275 271.965 323.495 270.41 321.995C268.855 320.495 267.009 319.306 264.977 318.494C262.946 317.683 260.768 317.265 258.569 317.265V317.265Z" stroke="#3F3D56" stroke-miterlimit="10"/>
<path d="M779.101 317.265H751.352V238.458C751.352 234.272 749.628 230.258 746.559 227.298C743.49 224.339 739.328 222.676 734.988 222.676H728.485C726.336 222.676 724.208 223.084 722.223 223.877C720.238 224.67 718.433 225.833 716.914 227.298C715.394 228.764 714.189 230.504 713.366 232.418C712.544 234.333 712.121 236.386 712.121 238.458V317.265H633.85C632.24 317.265 630.657 316.863 629.255 316.1C627.854 315.336 626.68 314.236 625.849 312.906C625.018 311.575 624.557 310.061 624.512 308.509C624.467 306.956 624.838 305.419 625.59 304.046L708.431 152.833C709.464 150.948 710.09 148.88 710.271 146.755C710.452 144.63 710.185 142.492 709.486 140.469C708.787 138.446 707.67 136.581 706.203 134.986C704.736 133.391 702.949 132.099 700.949 131.189L696.059 128.962C692.262 127.232 687.921 126.977 683.934 128.249C679.947 129.52 676.619 132.221 674.639 135.793L573.605 318.074C571.884 321.178 570.984 324.643 570.984 328.163C570.984 333.839 573.322 339.282 577.483 343.295C581.645 347.309 587.289 349.564 593.174 349.564H712.121V399.396C712.121 404.413 714.187 409.225 717.866 412.773C721.545 416.321 726.534 418.314 731.736 418.314V418.314C736.939 418.314 741.928 416.321 745.607 412.773C749.285 409.225 751.352 404.413 751.352 399.396V349.564H779.101C781.3 349.564 783.477 349.146 785.509 348.334C787.541 347.523 789.387 346.333 790.942 344.834C792.496 343.334 793.73 341.554 794.571 339.594C795.413 337.635 795.846 335.535 795.846 333.414V333.414C795.846 329.131 794.082 325.024 790.942 321.995C787.801 318.966 783.542 317.265 779.101 317.265V317.265Z" stroke="#3F3D56" stroke-miterlimit="10"/>
<path d="M421.714 117.474C354.599 117.474 306.412 159.001 306.412 255.897C306.412 365.713 354.599 394.782 421.714 394.782C488.828 394.782 539.886 362.944 539.886 255.897C539.886 141.467 488.828 117.474 421.714 117.474ZM422.155 358.33C375.67 358.33 351.385 332.029 351.385 255.968C351.385 188.856 376.664 153.464 423.149 153.464C469.634 153.464 494.914 176.711 494.914 255.968C494.914 330.112 468.64 358.33 422.155 358.33V358.33Z" stroke="#3F3D56" stroke-miterlimit="10"/>
<path d="M786.267 315.974C788.632 316.803 791.165 317.092 793.666 316.816C796.167 316.54 798.567 315.708 800.677 314.385C802.788 313.062 804.551 311.284 805.827 309.192C807.104 307.1 807.859 304.75 808.033 302.329C808.208 299.907 807.796 297.479 806.832 295.237C805.868 292.995 804.376 290.999 802.476 289.408C800.575 287.816 798.317 286.672 795.88 286.065C793.443 285.459 790.893 285.407 788.431 285.913L788.838 293.98L784.88 287.066C780.996 288.827 777.995 292.002 776.537 295.895C776.019 297.259 775.705 298.686 775.602 300.135C775.352 303.534 776.258 306.92 778.183 309.778C780.107 312.636 782.945 314.811 786.267 315.974Z" fill="#57B894"/>
<path d="M816.041 352.165C819.792 353.478 823.913 353.413 827.618 351.983C831.324 350.554 834.354 347.859 836.131 344.413C837.909 340.967 838.31 337.011 837.257 333.298C836.205 329.586 833.772 326.377 830.424 324.283L828.518 330.473L827.166 322.713C827.153 322.707 827.139 322.702 827.124 322.698C825.118 321.994 822.987 321.679 820.854 321.77C818.721 321.861 816.628 322.357 814.694 323.228C812.759 324.1 811.022 325.331 809.581 326.85C808.14 328.369 807.024 330.148 806.296 332.083C805.568 334.019 805.242 336.074 805.338 338.131C805.434 340.188 805.949 342.207 806.854 344.072C807.759 345.936 809.036 347.611 810.612 349C812.188 350.389 814.033 351.464 816.04 352.165H816.041Z" fill="#57B894"/>
<path d="M816.814 349.36C820.565 350.673 824.686 350.608 828.392 349.178C832.097 347.748 835.127 345.054 836.905 341.608C838.682 338.162 839.083 334.206 838.03 330.493C836.978 326.781 834.546 323.572 831.197 321.477L829.291 327.668L827.939 319.907C827.926 319.901 827.912 319.896 827.898 319.892C825.891 319.189 823.76 318.874 821.628 318.965C819.495 319.056 817.401 319.552 815.467 320.423C813.533 321.295 811.795 322.526 810.355 324.045C808.914 325.564 807.797 327.343 807.069 329.278C806.341 331.214 806.016 333.269 806.111 335.326C806.207 337.383 806.722 339.401 807.627 341.266C808.532 343.131 809.809 344.806 811.385 346.195C812.962 347.584 814.806 348.659 816.814 349.36H816.814Z" stroke="#3F3D56" stroke-miterlimit="10"/>
<path d="M799.121 378.195C799.766 381.735 801.653 384.954 804.466 387.311C807.28 389.668 810.848 391.02 814.573 391.141C818.297 391.262 821.951 390.144 824.923 387.975C827.894 385.806 830.002 382.717 830.893 379.227C831.783 375.737 831.402 372.058 829.814 368.807C828.226 365.556 825.526 362.93 822.169 361.37C818.812 359.81 815 359.411 811.374 360.24C807.748 361.069 804.527 363.075 802.252 365.921L809.493 376.432L799.599 370.854C798.832 373.228 798.668 375.746 799.121 378.195Z" fill="#57B894"/>
<path d="M799.79 376.118C800.435 379.658 802.322 382.876 805.136 385.233C807.949 387.59 811.517 388.943 815.242 389.064C818.966 389.185 822.621 388.067 825.592 385.898C828.564 383.729 830.671 380.64 831.562 377.15C832.452 373.66 832.071 369.981 830.483 366.73C828.895 363.478 826.196 360.853 822.838 359.293C819.481 357.733 815.669 357.334 812.043 358.163C808.417 358.991 805.196 360.997 802.922 363.844L810.163 374.355L800.269 368.776C799.502 371.151 799.337 373.669 799.79 376.118V376.118Z" stroke="#3F3D56" stroke-miterlimit="10"/>
<path d="M7.03402 354.157C8.58826 354.702 10.2525 354.891 11.8955 354.71C13.5386 354.529 15.1155 353.982 16.5021 353.113C17.8887 352.244 19.047 351.076 19.8857 349.701C20.7243 348.326 21.2205 346.783 21.3351 345.192C21.4496 343.601 21.1794 342.006 20.5458 340.532C19.9121 339.059 18.9324 337.748 17.6837 336.702C16.435 335.657 14.9515 334.905 13.3502 334.506C11.7489 334.108 10.0735 334.074 8.45605 334.406L8.72334 339.707L6.12302 335.164C3.57095 336.321 1.59938 338.407 0.641549 340.965C0.301384 341.861 0.0945892 342.799 0.0273335 343.75C-0.1368 345.984 0.458414 348.208 1.72278 350.086C2.98714 351.964 4.85174 353.393 7.03402 354.157Z" fill="#57B894"/>
<path d="M19.9004 415.635C18.9825 411.127 22.96 407.13 26.8889 404.533C30.8177 401.935 35.4084 399.383 36.7489 394.975C38.6755 388.639 32.9368 382.837 28.4702 377.833C25.1564 374.12 22.3107 370.041 19.9925 365.682C18.9846 363.969 18.2982 362.099 17.9647 360.156C17.6125 357.348 18.548 354.554 19.4905 351.875C22.6303 342.951 25.9872 334.102 29.5613 325.328" stroke="#3F3D56" stroke-miterlimit="10"/>
<path d="M7.47428 352.792C9.02851 353.337 10.6927 353.526 12.3358 353.345C13.9788 353.164 15.5558 352.617 16.9423 351.748C18.3289 350.879 19.4872 349.711 20.3259 348.336C21.1646 346.962 21.6607 345.418 21.7753 343.827C21.8899 342.236 21.6197 340.641 20.986 339.168C20.3524 337.694 19.3726 336.383 18.1239 335.338C16.8752 334.292 15.3917 333.54 13.7904 333.142C12.1891 332.743 10.5137 332.709 8.89631 333.042L9.16359 338.342L6.56326 333.799C4.0112 334.956 2.03962 337.042 1.0818 339.6C0.741635 340.496 0.534843 341.434 0.467583 342.386C0.303439 344.619 0.898649 346.843 2.16301 348.721C3.42738 350.599 5.29198 352.028 7.47428 352.792V352.792Z" stroke="#3F3D56" stroke-miterlimit="10"/>
<path d="M18.5953 323.497C19.2052 321.874 20.2289 320.425 21.5721 319.284C22.9152 318.143 24.5346 317.346 26.281 316.967L27.1602 322.006L28.7903 316.714C31.0535 316.746 33.2475 317.471 35.0555 318.784C36.8635 320.098 38.1919 321.931 38.849 324.02C39.5062 326.109 39.4579 328.345 38.7113 330.406C37.9647 332.467 36.5584 334.245 34.6953 335.485C32.8322 336.725 30.6089 337.361 28.3462 337.303C26.0836 337.245 23.8987 336.494 22.1071 335.16C20.3155 333.826 19.0098 331.978 18.3785 329.881C17.7473 327.785 17.8232 325.549 18.5953 323.497Z" fill="#57B894"/>
<path d="M19.1816 321.678C19.7916 320.055 20.8153 318.606 22.1584 317.464C23.5016 316.323 25.121 315.526 26.8674 315.147L27.7466 320.186L29.3766 314.894C31.6398 314.926 33.8338 315.652 35.6418 316.965C37.4498 318.278 38.7783 320.112 39.4354 322.201C40.0925 324.289 40.0443 326.526 39.2977 328.587C38.5511 330.647 37.1447 332.426 35.2816 333.666C33.4186 334.905 31.1952 335.542 28.9326 335.483C26.6699 335.425 24.4851 334.675 22.6934 333.341C20.9018 332.007 19.5961 330.158 18.9649 328.062C18.3337 325.965 18.4096 323.73 19.1816 321.678V321.678Z" stroke="#3F3D56" stroke-miterlimit="10"/>
<path d="M26.5958 377.935C29.0606 378.798 31.7683 378.755 34.2027 377.816C36.6371 376.876 38.628 375.106 39.7959 372.842C40.9639 370.578 41.2271 367.979 40.5355 365.539C39.844 363.1 38.2459 360.992 36.046 359.616L34.7935 363.683L33.9054 358.584C33.8966 358.58 33.8875 358.577 33.8782 358.574C32.5598 358.112 31.1598 357.905 29.7583 357.964C28.3567 358.024 26.9811 358.35 25.7101 358.922C24.439 359.495 23.2974 360.303 22.3506 361.302C21.4037 362.3 20.6701 363.469 20.1917 364.74C19.7133 366.012 19.4994 367.363 19.5624 368.714C19.6254 370.066 19.9639 371.392 20.5586 372.618C21.1534 373.843 21.9927 374.943 23.0286 375.856C24.0644 376.768 25.2766 377.475 26.5958 377.935Z" fill="#57B894"/>
<path d="M27.1038 376.092C29.5687 376.955 32.2763 376.912 34.7107 375.973C37.1452 375.033 39.1361 373.263 40.304 370.999C41.4719 368.735 41.7351 366.135 41.0436 363.696C40.352 361.257 38.754 359.149 36.5541 357.773L35.3015 361.84L34.4134 356.741C34.4046 356.737 34.3955 356.734 34.3862 356.731C33.0681 356.27 31.6687 356.064 30.2679 356.124C28.8671 356.185 27.4923 356.511 26.2221 357.083C23.6569 358.24 21.6732 360.333 20.7075 362.9C19.7418 365.468 19.8731 368.3 21.0727 370.774C22.2722 373.248 24.4417 375.161 27.1038 376.092V376.092Z" stroke="#3F3D56" stroke-miterlimit="10"/>
<path d="M15.4792 395.037C15.903 397.363 17.1431 399.478 18.9915 401.026C20.84 402.575 23.1843 403.463 25.6314 403.543C28.0785 403.622 30.4795 402.888 32.4318 401.463C34.3841 400.038 35.7689 398.008 36.3539 395.715C36.939 393.422 36.6888 391.005 35.6453 388.869C34.6017 386.733 32.8283 385.008 30.6224 383.983C28.4165 382.958 25.9123 382.696 23.5298 383.24C21.1473 383.785 19.0314 385.103 17.5369 386.973L22.2944 393.879L15.7938 390.214C15.2898 391.774 15.1819 393.428 15.4792 395.037Z" fill="#57B894"/>
<path d="M15.9189 393.673C16.3427 395.999 17.5828 398.113 19.4312 399.662C21.2797 401.21 23.624 402.099 26.0711 402.178C28.5182 402.258 30.9192 401.523 32.8715 400.098C34.8238 398.673 36.2086 396.644 36.7936 394.351C37.3787 392.058 37.1285 389.64 36.085 387.504C35.0414 385.368 33.268 383.643 31.0621 382.618C28.8562 381.593 26.352 381.331 23.9695 381.876C21.587 382.42 19.4711 383.738 17.9765 385.609L22.7341 392.514L16.2335 388.849C15.7295 390.409 15.6216 392.064 15.9189 393.673V393.673Z" stroke="#3F3D56" stroke-miterlimit="10"/>
<path d="M375.574 256.903C382.906 256.903 388.849 249.485 388.849 240.334C388.849 231.184 382.906 223.766 375.574 223.766C368.242 223.766 362.299 231.184 362.299 240.334C362.299 249.485 368.242 256.903 375.574 256.903Z" fill="#2F2E41"/>
<path d="M447.808 257.28C455.14 257.28 461.083 249.862 461.083 240.711C461.083 231.56 455.14 224.142 447.808 224.142C440.476 224.142 434.532 231.56 434.532 240.711C434.532 249.862 440.476 257.28 447.808 257.28Z" fill="#2F2E41"/>
<path d="M437.656 289.664C437.656 297.15 426.817 303.221 413.448 303.221C400.079 303.221 389.24 297.15 389.24 289.664C389.24 283.18 397.369 277.757 408.232 276.432C409.961 276.212 411.704 276.104 413.448 276.108C416.371 276.099 419.286 276.402 422.139 277.012C431.214 278.962 437.656 283.895 437.656 289.664Z" fill="#2F2E41"/>
<path d="M378.698 253.138C386.029 253.138 391.973 245.719 391.973 236.569C391.973 227.418 386.029 220 378.698 220C371.366 220 365.422 227.418 365.422 236.569C365.422 245.719 371.366 253.138 378.698 253.138Z" stroke="#3F3D56" stroke-miterlimit="10"/>
<path d="M450.931 253.514C458.263 253.514 464.207 246.096 464.207 236.945C464.207 227.795 458.263 220.377 450.931 220.377C443.6 220.377 437.656 227.795 437.656 236.945C437.656 246.096 443.6 253.514 450.931 253.514Z" stroke="#3F3D56" stroke-miterlimit="10"/>
<path d="M416.572 299.455C429.941 299.455 440.78 293.386 440.78 285.899C440.78 278.412 429.941 272.342 416.572 272.342C403.202 272.342 392.364 278.412 392.364 285.899C392.364 293.386 403.202 299.455 416.572 299.455Z" stroke="#3F3D56" stroke-miterlimit="10"/>
<path d="M422.428 278.141C422.435 279.088 422.066 280.002 421.398 280.696C421.082 281.028 420.698 281.294 420.271 281.477C419.844 281.659 419.382 281.754 418.914 281.756H411.105C410.143 281.724 409.233 281.326 408.575 280.648C407.916 279.971 407.563 279.07 407.591 278.141C407.587 277.407 407.81 276.688 408.231 276.077C409.96 275.842 411.703 275.727 413.448 275.731C416.374 275.722 419.292 276.046 422.139 276.695C422.332 277.155 422.43 277.646 422.428 278.141Z" fill="white"/>
<path d="M378.698 235.816C380.854 235.816 382.602 234.13 382.602 232.05C382.602 229.97 380.854 228.284 378.698 228.284C376.541 228.284 374.793 229.97 374.793 232.05C374.793 234.13 376.541 235.816 378.698 235.816Z" fill="white"/>
<path d="M451.322 235.816C453.478 235.816 455.226 234.13 455.226 232.05C455.226 229.97 453.478 228.284 451.322 228.284C449.166 228.284 447.417 229.97 447.417 232.05C447.417 234.13 449.166 235.816 451.322 235.816Z" fill="white"/>
<path opacity="0.3" d="M455.226 271.213C457.383 271.213 459.131 269.527 459.131 267.447C459.131 265.367 457.383 263.681 455.226 263.681C453.07 263.681 451.322 265.367 451.322 267.447C451.322 269.527 453.07 271.213 455.226 271.213Z" fill="#6C63FF"/>
<path opacity="0.3" d="M359.956 271.213C362.112 271.213 363.86 269.527 363.86 267.447C363.86 265.367 362.112 263.681 359.956 263.681C357.799 263.681 356.051 265.367 356.051 267.447C356.051 269.527 357.799 271.213 359.956 271.213Z" fill="#6C63FF"/>
</g>
<defs>
<clipPath id="clip0_102:58">
<rect width="839" height="440" fill="white"/>
</clipPath>
</defs>
</svg>
